<?xml version="1.0" encoding="utf-8"?>
<!-- Generator: Adobe Illustrator 16.0.0, SVG Export Plug-In . SVG Version: 6.00 Build 0)  -->
<!DOCTYPE svg PUBLIC "-//W3C//DTD SVG 1.1//EN" "http://www.w3.org/Graphics/SVG/1.1/DTD/svg11.dtd">
<svg version="1.1" id="Layer_1" xmlns="http://www.w3.org/2000/svg" xmlns:xlink="http://www.w3.org/1999/xlink" x="0px" y="0px"
	 width="263.818px" height="90.274px" viewBox="0 0 263.818 90.274" enable-background="new 0 0 263.818 90.274"
	 xml:space="preserve">
<g>
	<g>
		<g>
			<g>
				<path fill="#7F7F7F" d="M72.746,88.727c-0.318,0.496-0.678,0.859-1.08,1.074c-0.45,0.281-0.959,0.432-1.53,0.447
					c-0.521,0-1.067-0.133-1.638-0.381c-0.57-0.248-1.108-0.529-1.612-0.844c-0.571-0.363-1.142-0.777-1.717-1.24
					c-0.554,0.463-1.116,0.877-1.687,1.24c-0.504,0.314-1.042,0.596-1.625,0.844c-0.579,0.248-1.121,0.381-1.621,0.381
					c-0.591-0.016-1.112-0.166-1.559-0.447c-0.401-0.215-0.757-0.578-1.067-1.074c-0.314-0.496-0.468-1.199-0.468-2.117v-9.596
					h2.052v9.33c0.017,0.365,0.07,0.695,0.157,0.992c0.087,0.248,0.215,0.465,0.389,0.68c0.174,0.207,0.434,0.314,0.781,0.314
					c0.05,0,0.19-0.018,0.414-0.051c0.227-0.016,0.513-0.1,0.86-0.23c0.343-0.133,0.728-0.332,1.154-0.596
					c0.426-0.266,0.864-0.637,1.315-1.109v-9.379h1.894v9.379c0.434,0.473,0.864,0.844,1.286,1.109
					c0.426,0.264,0.806,0.463,1.146,0.596c0.335,0.131,0.616,0.215,0.844,0.23c0.223,0.033,0.364,0.051,0.417,0.051
					c0.327,0,0.583-0.107,0.766-0.314c0.182-0.215,0.314-0.432,0.401-0.68c0.086-0.297,0.141-0.627,0.157-0.992v-9.33h2.052v9.596
					C73.226,87.528,73.069,88.231,72.746,88.727z"/>
				<path fill="#7F7F7F" d="M96.46,89.497c-0.588,0.189-1.27,0.355-2.039,0.504c-0.773,0.148-1.601,0.223-2.481,0.223
					c-0.211,0-0.5-0.023-0.873-0.074c-0.372-0.057-0.744-0.197-1.116-0.422c-0.372-0.223-0.699-0.563-0.976-1.018
					c-0.277-0.445-0.414-1.074-0.414-1.869v-6.748c0-0.125,0.033-0.365,0.104-0.729s0.265-0.744,0.583-1.125
					c0.322-0.381,0.814-0.711,1.48-1.01c0.67-0.297,1.592-0.445,2.771-0.445c1.158,0,2.055,0.131,2.688,0.396
					c0.633,0.256,1.096,0.563,1.39,0.918c0.294,0.355,0.467,0.711,0.521,1.066c0.049,0.355,0.078,0.621,0.078,0.795v4.285h-7.539
					v2.572c0,0.404,0.148,0.768,0.442,1.1c0.294,0.348,0.79,0.512,1.48,0.512c0.157,0,0.418-0.016,0.782-0.064
					c0.364-0.043,0.778-0.117,1.249-0.207c0.467-0.092,0.959-0.225,1.48-0.373c0.517-0.166,1.013-0.363,1.481-0.604l0.777,1.563
					C97.759,89.042,97.134,89.29,96.46,89.497z M96.096,80.504c0-0.123-0.017-0.297-0.054-0.512
					c-0.033-0.215-0.132-0.43-0.298-0.629c-0.166-0.215-0.422-0.389-0.777-0.537c-0.355-0.141-0.848-0.225-1.468-0.225
					c-0.678,0-1.208,0.084-1.588,0.248c-0.38,0.166-0.666,0.355-0.856,0.58c-0.19,0.215-0.306,0.43-0.351,0.662
					c-0.042,0.215-0.066,0.379-0.066,0.486v1.953h5.459V80.504z"/>
				<path fill="#7F7F7F" d="M122.734,88.768c-0.277,0.455-0.596,0.785-0.959,1.018c-0.364,0.215-0.724,0.363-1.08,0.414
					c-0.355,0.049-0.612,0.074-0.769,0.074c-0.864,0-1.67-0.182-2.415-0.547c-0.745-0.363-1.377-0.744-1.898-1.141l-0.517,1.398
					h-1.559V71.821h2.076v6.732c0.26-0.189,0.55-0.396,0.873-0.611c0.318-0.217,0.658-0.414,1.014-0.596
					c0.355-0.184,0.724-0.332,1.104-0.447c0.38-0.107,0.769-0.166,1.17-0.166c0.624,0.051,1.187,0.215,1.688,0.463
					c0.417,0.248,0.802,0.613,1.158,1.084c0.356,0.473,0.534,1.176,0.534,2.094v6.518C123.152,87.694,123.011,88.313,122.734,88.768
					z M121.121,80.637c-0.017-0.33-0.095-0.637-0.232-0.91c-0.12-0.23-0.302-0.438-0.546-0.629
					c-0.244-0.189-0.591-0.281-1.038-0.281c-0.194,0-0.405,0.018-0.637,0.051c-0.235,0.033-0.504,0.1-0.807,0.207
					c-0.302,0.107-0.641,0.256-1.013,0.471c-0.372,0.199-0.786,0.48-1.237,0.828v6.393c0.902,0.711,1.646,1.166,2.238,1.381
					c0.587,0.199,1.071,0.307,1.455,0.307c0.447,0,0.794-0.09,1.038-0.273c0.244-0.182,0.426-0.396,0.546-0.637
					c0.137-0.256,0.215-0.563,0.232-0.91V80.637z"/>
				<path fill="#7F7F7F" d="M147.258,87.801c-0.165,0.486-0.446,0.908-0.827,1.266c-0.38,0.355-0.877,0.637-1.48,0.834
					c-0.604,0.199-1.356,0.299-2.258,0.299c-0.397,0-0.819-0.051-1.257-0.15c-0.447-0.09-0.886-0.23-1.315-0.412
					c-0.435-0.182-0.84-0.398-1.212-0.646c-0.372-0.256-0.687-0.537-0.947-0.844l0.807-1.537c0.207,0.264,0.476,0.496,0.807,0.711
					c0.326,0.215,0.682,0.404,1.063,0.563c0.381,0.156,0.757,0.281,1.121,0.363c0.355,0.084,0.67,0.133,0.935,0.133
					c0.587,0,1.059-0.066,1.414-0.182c0.355-0.125,0.629-0.281,0.819-0.48c0.189-0.197,0.322-0.43,0.389-0.695
					c0.074-0.256,0.107-0.529,0.107-0.801v-0.496c0-0.258-0.066-0.473-0.182-0.654c-0.125-0.166-0.248-0.307-0.397-0.414
					c-0.165-0.115-0.364-0.197-0.563-0.256l-3.068-0.703c-0.799-0.189-1.415-0.447-1.849-0.777c-0.431-0.33-0.744-0.662-0.936-1.01
					c-0.223-0.404-0.355-0.826-0.389-1.273v-0.578c0-0.795,0.137-1.424,0.414-1.869c0.277-0.447,0.604-0.787,0.977-1.01
					c0.371-0.232,0.744-0.363,1.116-0.414c0.372-0.057,0.666-0.082,0.872-0.082c0.877,0,1.671,0.066,2.366,0.207
					c0.694,0.141,1.29,0.289,1.786,0.438c0.579,0.199,1.092,0.396,1.539,0.629l-0.777,1.555c-0.472-0.223-0.927-0.404-1.365-0.545
					c-0.438-0.133-0.86-0.248-1.249-0.322c-0.389-0.076-0.728-0.125-1.009-0.141c-0.29-0.018-0.514-0.033-0.662-0.033
					c-0.803,0-1.323,0.148-1.563,0.445c-0.243,0.299-0.363,0.688-0.363,1.176v0.563c0,0.23,0.058,0.412,0.182,0.545
					c0.12,0.148,0.248,0.256,0.389,0.348c0.174,0.1,0.364,0.182,0.571,0.232l3.068,0.693c0.777,0.199,1.39,0.463,1.819,0.828
					c0.431,0.348,0.745,0.711,0.943,1.074c0.198,0.365,0.331,0.811,0.405,1.324v0.521C147.499,86.792,147.416,87.321,147.258,87.801
					z"/>
				<path fill="#7F7F7F" d="M169.277,89.024c-0.397,0.314-0.86,0.596-1.373,0.844c-0.529,0.248-1.042,0.381-1.538,0.381
					c-0.588-0.016-1.109-0.166-1.556-0.447c-0.397-0.215-0.761-0.578-1.075-1.074c-0.306-0.496-0.463-1.199-0.463-2.117v-7.775
					h-1.555v-1.82h1.555v-2.232l2.051-0.777v3.01h3.904v1.82h-3.904v7.51c0.017,0.365,0.066,0.695,0.157,0.992
					c0.091,0.248,0.224,0.465,0.389,0.68c0.174,0.207,0.431,0.314,0.778,0.314c0.058,0,0.165-0.018,0.313-0.051
					c0.157-0.016,0.364-0.1,0.629-0.23c0.257-0.133,0.571-0.332,0.935-0.596c0.364-0.266,0.77-0.637,1.216-1.109l0.91,1.439
					C170.204,88.247,169.74,88.661,169.277,89.024z"/>
				<path fill="#7F7F7F" d="M194.43,90.274l-1.456-1.846c-0.24,0.174-0.546,0.365-0.91,0.572s-0.761,0.404-1.199,0.604
					c-0.43,0.182-0.894,0.348-1.373,0.479c-0.479,0.125-0.976,0.191-1.456,0.191c-0.156,0-0.413-0.025-0.761-0.074
					c-0.364-0.051-0.72-0.199-1.083-0.414c-0.364-0.232-0.687-0.563-0.968-1.018c-0.273-0.455-0.414-1.074-0.414-1.877v-9.893h2.085
					v9.818c0,0.123,0.016,0.271,0.049,0.455c0.033,0.182,0.116,0.363,0.232,0.529c0.124,0.182,0.306,0.33,0.545,0.463
					c0.249,0.131,0.58,0.189,0.993,0.189c0.149,0,0.348-0.016,0.596-0.049c0.239-0.041,0.529-0.107,0.86-0.225
					c0.33-0.115,0.694-0.281,1.1-0.504s0.852-0.521,1.34-0.885v-9.793h2.076v10.156l1.307,2.342L194.43,90.274z"/>
				<path fill="#7F7F7F" d="M219.897,90.274l-1.455-1.846c-0.248,0.174-0.547,0.365-0.91,0.572
					c-0.364,0.207-0.761,0.404-1.191,0.604c-0.438,0.182-0.893,0.348-1.381,0.479c-0.488,0.125-0.968,0.191-1.456,0.191
					c-0.157,0-0.413-0.025-0.769-0.074c-0.348-0.051-0.712-0.199-1.076-0.414c-0.363-0.232-0.687-0.563-0.959-1.018
					c-0.281-0.455-0.414-1.074-0.414-1.877v-6.518c0-0.918,0.166-1.621,0.514-2.094c0.347-0.471,0.735-0.836,1.174-1.084
					c0.48-0.248,1.043-0.412,1.688-0.463c0.414,0,0.827,0.059,1.24,0.166c0.422,0.115,0.819,0.264,1.2,0.43
					c0.38,0.182,0.735,0.373,1.083,0.588c0.331,0.223,0.629,0.422,0.894,0.611v-6.707h2.084v15.334l1.29,2.342L219.897,90.274z
					 M218.078,80.422c-0.479-0.363-0.927-0.645-1.34-0.869c-0.405-0.215-0.761-0.379-1.075-0.486
					c-0.314-0.117-0.579-0.184-0.811-0.217c-0.224-0.023-0.389-0.033-0.496-0.033c-0.464,0-0.828,0.066-1.092,0.191
					c-0.248,0.133-0.455,0.281-0.596,0.455c-0.133,0.174-0.224,0.348-0.257,0.529s-0.058,0.338-0.058,0.463v6.361
					c0,0.123,0.024,0.271,0.058,0.455c0.033,0.182,0.107,0.363,0.24,0.529c0.115,0.182,0.298,0.33,0.546,0.463
					c0.231,0.131,0.563,0.189,0.976,0.189c0.165,0,0.364-0.008,0.604-0.041c0.239-0.018,0.529-0.092,0.852-0.199
					c0.331-0.115,0.703-0.281,1.108-0.496c0.413-0.215,0.86-0.512,1.34-0.877V80.422z"/>
				<path fill="#7F7F7F" d="M238.475,73.325c0,0.406-0.116,0.762-0.348,1.084s-0.546,0.48-0.951,0.48
					c-0.397,0-0.711-0.158-0.951-0.48c-0.232-0.322-0.348-0.678-0.348-1.084c0-0.256,0.115-0.537,0.348-0.842
					c0.24-0.299,0.554-0.447,0.951-0.447c0.405,0,0.72,0.148,0.951,0.447C238.359,72.788,238.475,73.069,238.475,73.325z
					 M236.142,89.967V76.965h2.076v13.002H236.142z"/>
				<path fill="#7F7F7F" d="M263.19,88.612c-0.314,0.412-0.795,0.793-1.465,1.125c-0.67,0.346-1.612,0.512-2.845,0.512
					s-2.176-0.148-2.846-0.447c-0.67-0.289-1.158-0.627-1.464-1.008c-0.314-0.381-0.496-0.744-0.546-1.109
					c-0.058-0.348-0.083-0.596-0.083-0.736v-6.939c0-0.115,0.033-0.363,0.1-0.727c0.074-0.365,0.265-0.736,0.587-1.117
					c0.323-0.381,0.819-0.721,1.48-1.018c0.67-0.289,1.589-0.438,2.771-0.438c1.232,0,2.175,0.148,2.845,0.438
					c0.67,0.297,1.15,0.637,1.465,1.018c0.313,0.381,0.496,0.752,0.545,1.117c0.05,0.363,0.083,0.611,0.083,0.727v6.939
					C263.768,87.569,263.553,88.131,263.19,88.612z M261.734,80.504c0-0.107-0.017-0.264-0.066-0.496
					c-0.033-0.223-0.157-0.445-0.348-0.662c-0.19-0.215-0.479-0.412-0.86-0.57c-0.38-0.164-0.909-0.248-1.579-0.248
					c-0.679,0-1.208,0.084-1.589,0.248c-0.38,0.158-0.67,0.355-0.852,0.57c-0.198,0.217-0.314,0.439-0.355,0.662
					c-0.041,0.232-0.066,0.389-0.066,0.496v6.055c0,0.133,0.025,0.314,0.074,0.514c0.059,0.215,0.183,0.414,0.364,0.611
					c0.198,0.199,0.479,0.381,0.86,0.529c0.381,0.141,0.901,0.215,1.563,0.215c0.653,0,1.183-0.074,1.563-0.215
					c0.38-0.148,0.661-0.33,0.852-0.529c0.19-0.197,0.306-0.396,0.363-0.611c0.059-0.199,0.075-0.381,0.075-0.514V80.504z"/>
			</g>
		</g>
		<path fill="#3A3738" d="M25.173,63.102H18.3L8.42,35.381l5.963-2.101l7.382,21.188l7.386-21.246L35,35.323L25.173,63.102z"/>
		<path fill="#3A3738" d="M79.583,64.12l-2.953-3.912c-0.947,0.826-1.968,1.473-3.064,1.928c-1.1,0.455-2.142,0.793-3.126,1.018
			c-1.133,0.264-2.271,0.438-3.408,0.512c-0.418,0-1.059-0.049-1.932-0.141c-0.868-0.09-1.741-0.396-2.609-0.902
			c-0.873-0.512-1.642-1.307-2.304-2.365c-0.662-1.059-0.992-2.551-0.992-4.482v-3.297c0.228-1.211,0.682-2.307,1.364-3.291
			c0.567-0.873,1.39-1.705,2.469-2.502c1.08-0.795,2.547-1.345,4.4-1.646l7.614-1.249v-1.704c-0.041-0.455-0.153-0.889-0.343-1.307
			c-0.19-0.339-0.463-0.653-0.823-0.939c-0.36-0.281-0.86-0.426-1.506-0.426c-0.566,0-1.654,0.182-3.263,0.542
			c-1.613,0.359-3.627,1.241-6.051,2.639l-2.498-5.113c1.249-0.715,2.593-1.381,4.032-1.985c1.212-0.492,2.61-0.947,4.202-1.365
			s3.238-0.625,4.942-0.625c0.376,0,1,0.058,1.873,0.169c0.873,0.116,1.733,0.438,2.585,0.968s1.609,1.332,2.271,2.411
			c0.662,1.08,0.997,2.585,0.997,4.516v14.313c0.451,0.836,0.993,1.807,1.617,2.924s1.146,2.061,1.563,2.813L79.583,64.12z
			 M67.941,50.774c-0.455,0.189-0.873,0.359-1.249,0.514c-0.307,0.148-0.579,0.33-0.823,0.537c-0.248,0.211-0.372,0.426-0.372,0.652
			v3.297c0.037,0.377,0.153,0.699,0.343,0.963c0.19,0.266,0.463,0.492,0.823,0.684c0.36,0.189,0.881,0.285,1.563,0.285
			c0.678,0,1.36-0.107,2.043-0.314s1.323-0.471,1.931-0.795c0.604-0.322,1.167-0.652,1.675-0.996c0.513-0.34,0.918-0.625,1.22-0.852
			v-5.055L67.941,50.774z"/>
		<path fill="#3A3738" d="M174.58,43.165c-0.042-0.684-0.157-1.287-0.348-1.82c-0.182-0.455-0.463-0.88-0.827-1.278
			c-0.355-0.397-0.86-0.596-1.505-0.596c-0.447,0-1.084,0.182-1.903,0.542c-0.811,0.36-1.993,1.199-3.539,2.527v20.563h-6.485V40.55
			l-0.62-5.054l4.938-1.65l1.373,2.613h0.05l-0.05,0.058c0.977-0.757,2.019-1.439,3.119-2.047c1.1-0.604,2.423-0.905,3.979-0.905
			c1.514,0,2.771,0.331,3.771,0.992c1.009,0.662,1.803,1.402,2.391,2.217c0.587,0.815,1,1.58,1.248,2.3
			c0.248,0.719,0.364,1.137,0.364,1.249L174.58,43.165z"/>
		<path fill="#3A3738" d="M205.464,63.102V34.074h6.485v29.028H205.464z"/>
		<path fill="#3A3738" d="M257.094,63.153V41.688c-0.033-0.381-0.133-0.741-0.281-1.08c-0.148-0.302-0.364-0.571-0.653-0.798
			c-0.29-0.223-0.687-0.339-1.216-0.339c-0.612,0-1.473,0.153-2.589,0.455c-1.117,0.302-2.589,1.08-4.409,2.329v20.898h-6.418V40.55
			l-0.679-5.054l4.946-1.65l1.473,2.556c1.174-0.757,2.515-1.418,4.003-1.985c1.497-0.57,3.003-0.852,4.517-0.852
			c0.381,0,1.009,0.054,1.877,0.169c0.869,0.112,1.746,0.434,2.614,0.963c0.868,0.534,1.638,1.336,2.3,2.415
			c0.661,1.08,0.992,2.585,0.992,4.516v21.523H257.094z"/>
		<g>
			<g>
				<path fill="#3A3738" d="M0,7.382V0l51.766,26.762v7.387L0,7.382z"/>
			</g>
		</g>
		<path fill="#3A3738" d="M132.242,38.42c-0.38-0.889-0.864-1.638-1.451-2.242c-0.588-0.607-1.22-1.079-1.902-1.422
			c-0.679-0.339-1.324-0.595-1.932-0.765c-0.604-0.17-1.117-0.277-1.53-0.314c-0.418-0.037-0.646-0.058-0.683-0.058
			c-1.439,0-2.833,0.306-4.177,0.91c-1.344,0.608-2.448,1.211-3.321,1.82v-9.556l-6.458-3.339h-0.018v39.699h6.476V42.709
			c0.72-0.455,1.439-0.889,2.159-1.307c0.641-0.339,1.344-0.654,2.101-0.939c0.757-0.281,1.514-0.426,2.271-0.426
			c0.608,0,1.08,0.095,1.423,0.286c0.339,0.19,0.596,0.417,0.765,0.682s0.273,0.509,0.314,0.735
			c0.037,0.229,0.054,0.365,0.054,0.402v21.01h6.476V41.688C132.808,40.401,132.619,39.31,132.242,38.42z"/>
	</g>
</g>
</svg>
